<svg viewBox="0 0 400 400" xmlns="http://www.w3.org/2000/svg">
  <!-- Médico -->
  <circle cx="300" cy="150" r="20" fill="white" stroke="black" stroke-width="2"/>
  <line x1="300" y1="170" x2="300" y2="220" stroke="black" stroke-width="2"/>
  <line x1="260" y1="200" x2="340" y2="200" stroke="black" stroke-width="2"/>
  <line x1="300" y1="220" x2="260" y2="260" stroke="black" stroke-width="2"/>
  <line x1="300" y1="220" x2="340" y2="260" stroke="black" stroke-width="2"/>
  <text x="300" y="290" text-anchor="middle" font-family="Arial" font-size="14">Médico</text>

  <!-- Casos de Uso -->
  <ellipse cx="150" cy="100" rx="70" ry="30" fill="white" stroke="black" stroke-width="2"/>
  <text x="150" y="105" text-anchor="middle" font-family="Arial" font-size="12">Monitorar pacientes</text>
  <line x1="240" y1="150" x2="190" y2="105" stroke="black" stroke-width="2"/>
  
  <ellipse cx="150" cy="170" rx="70" ry="30" fill="white" stroke="black" stroke-width="2"/>
  <text x="150" y="175" text-anchor="middle" font-family="Arial" font-size="12">Configurar alertas</text>
  <line x1="240" y1="190" x2="190" y2="170" stroke="black" stroke-width="2"/>
  
  <ellipse cx="150" cy="240" rx="70" ry="30" fill="white" stroke="black" stroke-width="2"/>
  <text x="150" y="245" text-anchor="middle" font-family="Arial" font-size="12">Enviar recomendações</text>
  <line x1="240" y1="230" x2="190" y2="240" stroke="black" stroke-width="2"/>
  
  <ellipse cx="150" cy="310" rx="70" ry="30" fill="white" stroke="black" stroke-width="2"/>
  <text x="150" y="315" text-anchor="middle" font-family="Arial" font-size="12">Gerar relatórios</text>
  <line x1="240" y1="270" x2="190" y2="295" stroke="black" stroke-width="2"/>
</svg>
