<svg viewBox="0 0 400 400" xmlns="http://www.w3.org/2000/svg">
  <!-- Paciente -->
  <circle cx="100" cy="150" r="20" fill="white" stroke="black" stroke-width="2"/>
  <line x1="100" y1="170" x2="100" y2="220" stroke="black" stroke-width="2"/>
  <line x1="60" y1="200" x2="140" y2="200" stroke="black" stroke-width="2"/>
  <line x1="100" y1="220" x2="60" y2="260" stroke="black" stroke-width="2"/>
  <line x1="100" y1="220" x2="140" y2="260" stroke="black" stroke-width="2"/>
  <text x="100" y="290" text-anchor="middle" font-family="Arial" font-size="14">Paciente</text>

  <!-- Casos de Uso -->
  <ellipse cx="250" cy="100" rx="80" ry="30" fill="white" stroke="black" stroke-width="2"/>
  <text x="250" y="105" text-anchor="middle" font-family="Arial" font-size="12">Registrar dados da diálise</text>
  <line x1="140" y1="150" x2="190" y2="105" stroke="black" stroke-width="2"/>
  
  <ellipse cx="250" cy="170" rx="70" ry="30" fill="white" stroke="black" stroke-width="2"/>
  <text x="250" y="175" text-anchor="middle" font-family="Arial" font-size="12">Registrar sintomas</text>
  <line x1="140" y1="190" x2="180" y2="170" stroke="black" stroke-width="2"/>
  
  <ellipse cx="250" cy="240" rx="70" ry="30" fill="white" stroke="black" stroke-width="2"/>
  <text x="250" y="245" text-anchor="middle" font-family="Arial" font-size="12">Visualizar histórico</text>
  <line x1="140" y1="230" x2="180" y2="240" stroke="black" stroke-width="2"/>
  
  <ellipse cx="250" cy="310" rx="70" ry="30" fill="white" stroke="black" stroke-width="2"/>
  <text x="250" y="315" text-anchor="middle" font-family="Arial" font-size="12">Receber alertas</text>
  <line x1="140" y1="270" x2="190" y2="295" stroke="black" stroke-width="2"/>
</svg>
